<?xml version="1.0" encoding="UTF-8"?><svg id="Layer_2" xmlns="http://www.w3.org/2000/svg" xmlns:xlink="http://www.w3.org/1999/xlink" viewBox="0 0 71.71 70.87"><defs><style>.cls-1{fill:none;}.cls-2{clip-path:url(#clippath);}.cls-3{fill:#fffefa;}</style><clipPath id="clippath"><rect class="cls-1" width="71.71" height="70.87"/></clipPath></defs><g id="Layer_1-2"><g id="Group_9"><g class="cls-2"><g id="Group_8"><path id="Path_13" class="cls-3" d="M36.04,.03c7.09,0,14.18,.02,21.27,0,2.61-.1,5.2,.52,7.49,1.78,3.75,2.07,6.27,5.81,6.79,10.06,.09,.69,.12,1.39,.11,2.09,0,13.82,0,27.64,.01,41.47,.04,1.1,0,2.21-.12,3.31-.21,1.67-.71,3.29-1.46,4.79-1.82,3.59-5.16,6.17-9.1,7.02-.96,.23-1.94,.33-2.93,.32-4.03,.01-8.06,0-12.09,.02-.46,0-.54-.14-.54-.56,.01-7.85,.01-15.7,0-23.55,0-.47,.15-.53,.57-.53,3.04,.02,6.08,0,9.12,.02,.46,0,.55-.14,.54-.56-.02-2.76-.02-5.51,0-8.26,0-.46-.09-.61-.6-.61-3.02,.03-6.05,0-9.07,.03-.48,0-.58-.15-.56-.58-.06-1.76,.01-3.52,.21-5.26,.11-1.16,.71-2.21,1.66-2.88,1.02-.64,2.2-.99,3.4-.99,1.48,0,2.96-.01,4.43,0,.38,0,.52-.07,.52-.48-.02-2.82,0-5.64,0-8.46,0-.24,.07-.49-.35-.48-2.42,.06-4.84-.11-7.25,.12-2.72,.11-5.34,1.03-7.52,2.64-2.44,1.99-4.06,4.81-4.57,7.91-.41,2.54-.57,5.12-.48,7.69q0,.76-.76,.76c-1.88,0-3.76,.01-5.65,0-.4,0-.55,.07-.54,.51,.02,2.8,.02,5.61,0,8.41,0,.39,.11,.5,.5,.5,2-.02,4,0,6-.02,.35,0,.45,.09,.45,.44,0,7.92,0,15.83,0,23.74,0,.34-.09,.45-.45,.45-7.16,0-14.31,.02-21.47-.02-3.5,0-6.86-1.35-9.37-3.79C1.52,64.64-.02,61.16,0,57.52-.01,43.61-.01,29.71,0,15.8c-.09-1.81,.05-3.62,.4-5.39C1.79,4.56,6.9,.36,12.91,.11c5.1-.21,10.21-.06,15.32-.09C30.82,.01,33.43,.03,36.03,.03h0Z"/></g></g></g></g></svg>