<?xml version="1.0" encoding="UTF-8"?><svg id="Layer_2" xmlns="http://www.w3.org/2000/svg" viewBox="0 0 76.65 76.63"><defs><style>.cls-1{fill:#fffefa;}.cls-2{fill:#fbfbfb;}</style></defs><g id="Layer_1-2"><g><path class="cls-1" d="M0,38.32c0-7.08,0-14.16,0-21.24C.02,8.55,5.91,1.61,14.31,.19,15.22,.04,16.14,0,17.07,0c14.18,0,28.37,0,42.55,0,9.49,0,17.02,7.53,17.02,17,0,14.18,0,28.36,0,42.55,0,8.53-6.02,15.58-14.43,16.91-.87,.14-1.75,.17-2.64,.17-14.18,0-28.37,0-42.55,0C7.55,76.62,.04,69.15,.01,59.68c-.02-7.12,0-14.24,0-21.37Zm64.4,0c0-3.69,0-7.39,0-11.08-.02-8.43-6.58-14.99-15-15-7.37-.01-14.74,0-22.11,0-.76,0-1.52,.04-2.27,.15-7.48,1.13-12.79,7.31-12.79,14.86,0,7.39,0,14.78,0,22.16,0,8.37,6.57,14.98,14.94,15,7.43,.02,14.86,0,22.29,0,.74,0,1.48-.04,2.21-.16,7.52-1.21,12.71-7.3,12.73-14.91,0-3.67,0-7.35,0-11.02Z"/><path class="cls-1" d="M38.34,16.71c3.67,0,7.35,0,11.02,0,6.02,0,10.56,4.55,10.56,10.55,0,7.37,0,14.73,0,22.1,0,6-4.55,10.54-10.57,10.55-7.37,0-14.74,0-22.1,0-5.97,0-10.54-4.56-10.54-10.52,0-7.39,0-14.77,0-22.16,0-5.96,4.58-10.51,10.55-10.52,3.69,0,7.39,0,11.08,0Zm-.1,34.95c7.34,.06,13.38-5.89,13.43-13.21,.05-7.46-5.87-13.45-13.33-13.5-7.28-.05-13.33,5.92-13.38,13.21-.06,7.41,5.88,13.44,13.28,13.49Zm14.04-24.27c1.78-.02,3.2-1.47,3.18-3.24-.02-1.77-1.49-3.21-3.25-3.18-1.77,.02-3.19,1.47-3.17,3.25,.01,1.78,1.45,3.19,3.24,3.17Z"/><path class="cls-2" d="M29.45,38.3c0,4.92,3.96,8.89,8.87,8.89,4.9,0,8.88-3.98,8.88-8.89,0-4.86-3.98-8.85-8.85-8.86-4.92,0-8.9,3.95-8.9,8.86Z"/><path class="cls-1" d="M29.45,38.3c0-4.91,3.98-8.87,8.9-8.86,4.87,0,8.86,4,8.85,8.86,0,4.91-3.98,8.89-8.88,8.89-4.91,0-8.88-3.98-8.87-8.89Z"/></g></g></svg>