<?xml version="1.0" encoding="UTF-8"?><svg id="Layer_2" xmlns="http://www.w3.org/2000/svg" viewBox="0 0 70.37 70.38"><defs><style>.cls-1{fill:#fffefa;}</style></defs><g id="Layer_1-2"><path class="cls-1" d="M70.37,35.19c0,7.29,0,14.59,0,21.88,0,3.23-1.02,6.11-3.1,8.58-1.99,2.36-4.52,3.85-7.55,4.46-.84,.17-1.69,.25-2.55,.25-14.66,0-29.32,.04-43.98-.02-5.17-.02-9.05-2.45-11.61-6.94C.5,61.51,0,59.43,0,57.26,0,42.51-.01,27.76,.02,13.01c0-3.74,1.48-6.91,4.21-9.47C6.12,1.76,8.37,.66,10.92,.2,11.65,.07,12.39,0,13.14,0c14.74,0,29.48-.02,44.23,.01,3.48,0,6.48,1.3,8.99,3.72,2,1.92,3.24,4.27,3.78,6.98,.17,.86,.24,1.72,.24,2.59,0,7.29,0,14.59,0,21.88Zm-32.37-3.64c0-.09,0-.17,0-.26-.02-1.35-.04-2.71-.06-4.06,0-.19-.06-.23-.24-.23-3.53,0-7.07,0-10.6,0-.21,0-.25,.06-.25,.26,.01,1.76,.02,3.53,.02,5.29,0,5.28,.01,10.55,.02,15.83,0,3.71,.02,7.41,.02,11.12,0,.2,.05,.24,.24,.24,3.53,0,7.05,0,10.58,0,.22,0,.27-.06,.27-.27,0-6.2,0-12.4,0-18.6,0-1.14,.23-2.22,.81-3.22,1.06-1.84,2.59-2.9,4.75-2.93,.96-.02,1.89,.14,2.73,.66,.93,.58,1.46,1.45,1.8,2.46,.41,1.23,.53,2.5,.53,3.78,0,5.95,0,11.91,0,17.86,0,.21,.06,.25,.26,.25,3.5,0,6.99,0,10.49,0,.22,0,.28-.04,.28-.27,0-6.13,0-12.26,0-18.39,0-1.05-.04-2.1-.16-3.14-.21-1.79-.62-3.51-1.39-5.15-1.28-2.73-3.3-4.68-6.16-5.7-2.19-.78-4.45-.92-6.74-.56-2.47,.39-4.49,1.59-6.07,3.53-.39,.48-.75,.99-1.13,1.5Zm-16.24,11.84s-.02,0-.04,0c0-.58,0-1.16,0-1.74,0-4.81-.01-9.61-.01-14.42,0-.2-.06-.22-.24-.22-3.49,0-6.98,0-10.47,0-.19,0-.25,.03-.25,.24,.01,1.53,0,3.05,.01,4.58,.01,4.84,.02,9.69,.03,14.53,0,4.39,.01,8.78,.02,13.17,0,.15,0,.22,.2,.22,3.52,0,7.04,0,10.56,0,.15,0,.18-.05,.18-.19,0-5.39,0-10.77,0-16.16Zm-5.72-31.71c-.19,0-.45,0-.7,.04-.27,.03-.54,.07-.81,.13-2.65,.52-4.43,2.63-4.43,5.3,0,2.3,1.03,4,3.12,5,1.36,.65,2.82,.71,4.29,.43,1.26-.24,2.36-.8,3.21-1.78,1.11-1.28,1.5-2.78,1.26-4.43-.2-1.36-.81-2.52-1.89-3.4-1.16-.94-2.52-1.28-4.04-1.3Z"/></g></svg>