<?xml version="1.0" encoding="UTF-8"?><svg id="Layer_2" xmlns="http://www.w3.org/2000/svg" xmlns:xlink="http://www.w3.org/1999/xlink" viewBox="0 0 156.95 161.99"><defs><style>.cls-1{fill:none;}.cls-2{fill:url(#linear-gradient);}.cls-3{clip-path:url(#clippath);}</style><clipPath id="clippath"><path class="cls-1" d="M155.19,0c-1.17,.04-3.14,1.07-6.46,2.81h0c-3.26,1.71-6.99,2.76-7.91,7.1h0c-1.09,5.16-1.85,5.23-7.88,4.61h0c-3.24-.33-6.45-1.32-9.5,1.16h0c-8.12,6.61-16.52,12.93-24.62,19.56h0c-2.52,2.06-4.77,2.58-7.36,.69h0c-2.9-2.12-4.4-.95-5.72,1.58h0c-2.46,4.7-5,9.36-7.57,14h0c-4.94,8.89-5.77,9.08-15.08,3.62h0c-4.82-2.83-4.43-2.52-8.2,1.26h0c-3.81,3.82-9.94,5.65-14.84,5.54h0c-5.89-.14-9.05,1.48-12.1,5.39h0c-2.66,3.41-6.26,5.52-11.17,3.96h0c-1.49-.39-3.07-.13-4.35,.72h0c-3.52,1.81-7.01,3.71-10.61,5.4h0c-1.25,.58-1.82,1.07-1.83,1.55H0v.04c.03,.51,.67,1.01,1.82,1.62h0c7.82,4.15,15.58,8.39,23.36,12.6h0c1.06,.66,2.27,1.03,3.52,1.08h0c11.29-.1,20.05,5.52,29.06,10.54h0c1.28,.72,2.2,1.96,2.5,3.4h0c.92,3.93,3.72,5.01,7.75,4.53h0c5.82-.69,11.63-1.52,17.47-1.93h0c5.03-.35,6.61,1.25,6.49,5.69h0c-.13,4.63-.12,4.67,5.06,4.08h0c2.78-.32,5.67-.47,6.86,2.25h0c1.11,2.54,2.97,2.8,5.5,2.97h0c4.52,.31,5.76,2.02,4.72,6h0c-.78,2.99-.16,5.1,3.35,6.34h0c4.04,1.42,7.45,3.57,7.82,8.04h0c.1,1.22,1.17,1.68,2.1,2.18h0c8.02,4.35,16.08,8.63,24.07,13.03h0c.49,.31,1.04,.51,1.61,.58h.06c.71-.03,.9-.75,.99-1.97h0c.48-7.33,.51-14.69,.07-22.03h0c0-2.88-1.8-5.45-4.51-6.42h0c-4.81-1.5-4.56-4.69-3.82-7.93h0c.66-2.5,.11-5.16-1.48-7.2h0c-2.32-3.14-2.38-5.85,1.48-8.07h0c2.27-1.31,2-2.8,.18-4.3h0c-.92-.77-1.84-1.55-2.73-2.35h0c-3.86-3.47-4.07-5.06-.99-9.25h0c2.33-3.17,4.84-6.22,7.22-9.35h0c1.43-1.88,4-3.88,3.87-5.69h0c-.19-2.48-4.43-1.75-6.46-3.73h0c9.46-3.37,10.06-4.05,7.47-11.7h0c-3.2-9.45-3.75-19.1-.85-28.47h0c2.73-8.81,3.45-17.61,3.4-26.6h0c0-.74,0-1.41-.02-2.02h0v-.5c-.07-3.07-.33-4.4-1.64-4.4h-.08s0,0,0,0Z"/></clipPath><linearGradient id="linear-gradient" x1="-350.58" y1="650.74" x2="-349.58" y2="650.74" gradientTransform="translate(57288.52 104468.81) rotate(-1) scale(158.19 -161.92)" gradientUnits="userSpaceOnUse"><stop offset="0" stop-color="#1f3b2b"/><stop offset=".1" stop-color="#1f3c30"/><stop offset=".2" stop-color="#203d35"/><stop offset=".3" stop-color="#203e3a"/><stop offset=".4" stop-color="#203e3f"/><stop offset=".5" stop-color="#203f43"/><stop offset=".6" stop-color="#203f49"/><stop offset=".7" stop-color="#203f4d"/><stop offset=".8" stop-color="#1f3e53"/><stop offset=".9" stop-color="#1e3e58"/><stop offset="1" stop-color="#1d3d5c"/></linearGradient></defs><g id="Layer_1-2"><g id="Group_19"><g class="cls-3"><g id="Group_18"><g id="Group_17"><path id="Path_40" class="cls-2" d="M-1.33,2.73L156.84-.03l2.83,161.9L1.5,164.63-1.33,2.73Z"/></g></g></g></g></g></svg>