<?xml version="1.0" encoding="UTF-8"?><svg id="Layer_2" xmlns="http://www.w3.org/2000/svg" viewBox="0 0 71.71 80.44"><defs><style>.cls-1{fill:#fffefa;}</style></defs><g id="Layer_1-2"><path id="Path_1" class="cls-1" d="M37.61,37.28c-.68,.8-1.5,1.48-2.41,2-1.72,1.04-3.88,1-5.55-.11-.99-.65-1.78-1.57-2.26-2.65-.58-1.22-.88-2.57-.87-3.92,.02-1.84,.48-3.66,1.35-5.29,.76-1.59,1.91-2.95,3.35-3.97,1.14-.82,2.49-1.28,3.89-1.32,.97,0,1.92,.26,2.76,.75,.93,.56,1.71,1.35,2.25,2.29l.58-2.57h2.95l-2.38,11.13c-.34,1.55-.5,2.4-.5,2.56,0,.29,.12,.58,.34,.78,.22,.21,.52,.32,.82,.32,.85-.1,1.66-.45,2.31-1.01,1.29-.91,2.32-2.13,3-3.55,.72-1.42,1.1-2.99,1.1-4.59,0-1.82-.48-3.6-1.42-5.15-1.01-1.66-2.48-3-4.24-3.84-1.93-.97-4.06-1.46-6.21-1.44-2.48-.03-4.93,.6-7.1,1.81-2.14,1.2-3.87,3.01-4.98,5.2-1.18,2.24-1.78,4.73-1.77,7.26-.07,2.44,.55,4.86,1.77,6.98,1.19,1.96,2.98,3.48,5.11,4.33,2.35,.96,4.86,1.43,7.4,1.4,2.51,.08,5-.42,7.28-1.46,1.74-.8,3.25-2.02,4.4-3.56h2.99c-.73,1.36-1.71,2.57-2.9,3.55-1.44,1.25-3.09,2.22-4.88,2.86-2.2,.75-4.51,1.11-6.83,1.05-2.3,.02-4.58-.3-6.78-.95-1.95-.56-3.75-1.52-5.3-2.83-1.4-1.2-2.53-2.68-3.29-4.36-.94-2.13-1.41-4.43-1.39-6.75,0-2.65,.56-5.27,1.66-7.69,1.2-2.81,3.2-5.2,5.75-6.87,2.72-1.65,5.85-2.48,9.03-2.38,2.56-.04,5.1,.53,7.39,1.68,2.18,1.12,3.98,2.86,5.17,5,1.07,1.9,1.63,4.04,1.61,6.22,.01,3.17-1.2,6.22-3.38,8.52-2.02,2.23-4.21,3.34-6.6,3.34-.63,.03-1.26-.09-1.84-.35-.45-.21-.81-.56-1.03-1-.19-.46-.29-.94-.31-1.44h0Zm-2.45,25.04L8.92,39.97,0,32.38v48.06H71.71V32.38l-8.83,7.52c-.05,.05-.11,.1-.17,.14l-26.15,22.27c-.4,.35-1,.35-1.41,0h0ZM44.32,7.21L35.85,0l-8.46,7.21H8.26V23.51L.58,30.04l7.95,6.77h0s2.44,2.04,2.44,2.04V9.92H60.75l.06,28.9,2.38-2.01h0s7.95-6.77,7.95-6.77l-7.68-6.54V7.2h-19.13Zm-14.76,25.6c-.08,1.27,.3,2.52,1.08,3.53,.59,.78,1.5,1.24,2.47,1.26,.69-.02,1.36-.21,1.96-.55,.75-.43,1.41-.98,1.96-1.65,.68-.82,1.2-1.77,1.53-2.78,.39-1.08,.6-2.22,.6-3.37,.08-1.27-.32-2.52-1.12-3.5-.68-.8-1.68-1.26-2.73-1.25-.7,0-1.39,.19-2,.54-.72,.45-1.34,1.04-1.82,1.73-.63,.88-1.11,1.86-1.41,2.9-.33,1.01-.51,2.07-.53,3.13h0Z"/></g></svg>