<?xml version="1.0" encoding="UTF-8"?><svg id="Layer_2" xmlns="http://www.w3.org/2000/svg" viewBox="0 0 58.52 85.27"><defs><style>.cls-1,.cls-2{fill:#fff;}.cls-2{fill-rule:evenodd;}</style></defs><g id="Layer_1-2"><path id="Path_6" class="cls-1" d="M39.04,63.2h.05c4.78,.53,9.43,1.84,13.78,3.89,3.56,1.86,5.64,4.21,5.64,6.83,0,3.34-3.43,6.26-8.97,8.28-13.22,4.09-27.36,4.09-40.58,0-5.54-2.02-8.97-4.94-8.97-8.28,0-2.63,2.09-4.98,5.66-6.84,4.36-2.05,9.03-3.36,13.81-3.88l.28,2.16c-4.54,.48-8.96,1.72-13.09,3.66-2.82,1.47-4.48,3.17-4.48,4.91,0,2.33,2.88,4.54,7.53,6.24,12.74,3.92,26.36,3.92,39.1,0,4.65-1.7,7.53-3.91,7.53-6.24,0-1.74-1.66-3.43-4.47-4.91-4.12-1.93-8.53-3.17-13.05-3.65h-.06s.28-2.16,.28-2.16Z"/><path id="Path_7" class="cls-2" d="M29.26,73.92c7.41-12.85,23.15-37.99,23.15-50.77S42.04,0,29.26,0,6.11,10.36,6.11,23.15s15.73,37.92,23.15,50.77h0Zm12.7-50.71c0,7.01-5.69,12.7-12.71,12.69s-12.7-5.69-12.69-12.71c0-7.01,5.69-12.69,12.7-12.69,7.02,0,12.7,5.69,12.7,12.71Z"/></g></svg>