<?xml version="1.0" encoding="UTF-8"?><svg id="Layer_2" xmlns="http://www.w3.org/2000/svg" viewBox="0 0 943.13 575.25"><defs><style>.cls-1{fill:#fffffb;}.cls-2{stroke-width:2px;}.cls-2,.cls-3{fill:none;stroke:#fffffb;stroke-miterlimit:10;}.cls-3{stroke-width:4px;}</style></defs><g id="Layer_1-2"><g><path class="cls-2" d="M898.58,504.81c-6.41,0-12.39-.8-17.93-2.4-5.55-1.6-10.24-3.49-14.09-5.66l-5.1,5.18h-6.28l-.96-37.93h6.36c1.43,3.61,3.25,7.41,5.47,11.41,2.22,4,4.78,7.58,7.69,10.74,3,3.31,6.37,6,10.09,8.08,3.72,2.07,8.07,3.11,13.05,3.11,6.7,0,11.84-1.64,15.42-4.92,3.57-3.28,5.36-7.41,5.36-12.4,0-4.1-1.52-7.54-4.55-10.32s-7.73-5.2-14.09-7.23c-4.14-1.34-7.95-2.57-11.42-3.71-3.48-1.14-6.74-2.3-9.8-3.49-7.05-2.81-12.29-6.84-15.71-12.07-3.43-5.23-5.14-11.08-5.14-17.55,0-4.1,.89-8.03,2.66-11.81,1.77-3.78,4.36-7.17,7.76-10.18,3.25-2.81,7.42-5.11,12.5-6.88,5.08-1.78,10.6-2.67,16.56-2.67s11.26,.81,16.34,2.44c5.08,1.63,9.07,3.25,11.98,4.88l4.51-4.44h6.43l.59,35.79h-6.36c-1.48-3.85-3.22-7.79-5.21-11.82-2-4.03-4.1-7.38-6.32-10.04-2.42-2.87-5.2-5.15-8.36-6.86-3.15-1.7-6.85-2.56-11.09-2.56-5.32,0-9.68,1.51-13.05,4.52-3.38,3.01-5.06,6.74-5.06,11.18,0,4.2,1.47,7.63,4.4,10.29,2.93,2.67,7.51,5.01,13.72,7.04,3.65,1.23,7.37,2.47,11.17,3.7,3.8,1.23,7.17,2.42,10.13,3.55,7.15,2.76,12.58,6.58,16.3,11.44,3.72,4.86,5.58,10.9,5.58,18.1,0,4.54-1.06,8.94-3.18,13.18-2.12,4.25-4.98,7.77-8.58,10.59-3.94,3.11-8.5,5.5-13.68,7.18-5.18,1.68-11.21,2.52-18.12,2.52Z"/><path class="cls-1" d="M94.64,73.27c6.41,4.19,11.58,9.77,15.53,16.75,3.94,6.98,5.92,15.52,5.92,25.62,0,8.87-1.76,16.6-5.29,23.18-3.52,6.58-8.2,11.97-14.01,16.16-5.92,4.19-12.63,7.31-20.15,9.35-7.52,2.05-15.39,3.07-23.62,3.07H.15v-5.77c1.58-.05,3.55-.2,5.92-.44s3.94-.54,4.73-.89c1.77-.74,3.01-1.74,3.7-2.99,.69-1.26,1.04-2.77,1.04-4.55V78.37c0-1.68-.32-3.19-.96-4.55-.64-1.36-1.9-2.45-3.77-3.29-1.87-.84-3.86-1.4-5.95-1.7-2.1-.3-3.71-.49-4.84-.59v-5.77H55.83c5.96,0,12.35,.76,19.15,2.29,6.8,1.53,13.36,4.36,19.67,8.5Zm-15.08,75.2c2.41-3.94,4.18-8.64,5.29-14.09,1.11-5.45,1.66-11.72,1.66-18.82s-.74-13.28-2.22-19-3.65-10.6-6.51-14.64c-2.86-4.04-6.42-7.17-10.68-9.39-4.26-2.22-9.11-3.33-14.53-3.33-1.73,0-3.69,.04-5.88,.11-2.19,.07-3.83,.14-4.92,.18v79.63c0,1.77,.23,3.34,.7,4.7,.47,1.36,1.27,2.55,2.4,3.59,1.13,1.04,2.53,1.84,4.18,2.4,1.65,.57,3.81,.85,6.47,.85,5.57,0,10.35-1.04,14.34-3.11,3.99-2.07,7.22-5.1,9.69-9.09Z"/><path class="cls-1" d="M184.19,167.39h-58.19v-5.77c1.33-.1,3.29-.25,5.88-.44,2.59-.2,4.37-.49,5.36-.89,1.82-.74,3.07-1.71,3.73-2.92s1-2.75,1-4.62V78.37c0-1.68-.32-3.15-.96-4.44-.64-1.28-1.9-2.32-3.77-3.11-1.18-.49-2.93-1-5.25-1.52-2.32-.52-4.31-.87-5.99-1.07v-5.77h58.19v5.77c-1.48,.15-3.33,.36-5.55,.63s-4.09,.65-5.62,1.15c-1.92,.64-3.21,1.64-3.84,2.99-.64,1.36-.96,2.9-.96,4.62v74.31c0,1.77,.33,3.29,1,4.55s1.93,2.28,3.81,3.07c1.04,.44,2.75,.87,5.14,1.29,2.39,.42,4.4,.68,6.03,.78v5.77Z"/><path class="cls-1" d="M307.82,167.39h-57.16v-5.77c2.66-.2,5.78-.68,9.37-1.44,3.59-.76,5.39-1.71,5.39-2.85,0-.39-.04-.84-.11-1.33s-.28-1.16-.63-2l-8.95-21.74h-36.22c-.83,2.02-1.75,4.39-2.76,7.1-1.01,2.71-1.87,5.13-2.61,7.25-.93,2.76-1.48,4.76-1.66,5.99-.17,1.23-.26,2.09-.26,2.59,0,1.58,1.19,2.92,3.58,4.03,2.39,1.11,6.37,1.91,11.93,2.4v5.77h-43.03v-5.77c1.63-.1,3.46-.36,5.51-.78s3.66-1,4.84-1.74c2.02-1.18,3.73-2.64,5.14-4.36s2.58-3.77,3.51-6.14c5.72-13.85,11.45-27.73,17.19-41.63,5.74-13.9,12.09-29.23,19.04-45.99h14.79c9.66,23.76,17.23,42.54,22.7,56.34,5.47,13.8,10.13,25.24,13.97,34.31,.64,1.48,1.45,2.82,2.44,4.03,.99,1.21,2.39,2.35,4.21,3.44,1.38,.79,2.98,1.38,4.81,1.77,1.82,.39,3.48,.64,4.95,.74v5.77Zm-55.13-42.44l-15.19-37.93-14.96,37.93h30.15Z"/><path class="cls-1" d="M358.03,167.39h-49.26v-5.77c1.73-.15,3.75-.38,6.06-.7,2.32-.32,3.84-.63,4.58-.92,1.77-.69,3.01-1.65,3.7-2.88,.69-1.23,1.04-32.05,1.04-33.97m26.25,33.45c0,3.25,.22-.49,.67,1.38s1.31,2.25,2.59,3.14c1.28,.94,3.07,2.54,5.36,2.81"/><path class="cls-2" d="M407.53,133.01l-2.07,33.64h-96.64v-5.77c1.73-.15,3.75-.38,6.06-.7,2.32-.32,3.84-.63,4.58-.92,1.77-.69,3.01-1.65,3.7-2.88,.69-1.23,1.04-2.81,1.04-4.73V77.63c0-1.77-.27-3.24-.81-4.4-.54-1.16-1.85-2.21-3.92-3.14-1.53-.69-3.36-1.24-5.51-1.66s-3.86-.73-5.14-.92v-5.77h57.6v5.77c-1.58,.15-3.44,.36-5.58,.63s-4.01,.65-5.58,1.15c-1.92,.64-3.21,1.64-3.84,2.99-.64,1.36-.96,2.9-.96,4.62v68.99c0,3.25,.22,5.82,.67,7.69s1.31,3.25,2.59,4.14c1.28,.94,3.07,1.54,5.36,1.81s5.46,.41,9.5,.41,7.78-.23,11.5-.7c3.72-.47,6.4-1.49,8.02-3.07,2.51-2.51,5.09-6.05,7.73-10.61,2.64-4.56,4.74-8.74,6.32-12.53h5.4Z"/><path class="cls-2" d="M509.53,74.15c5.18,4.73,9.28,10.45,12.31,17.15,3.03,6.7,4.55,14.34,4.55,22.92,0,7.64-1.28,14.91-3.84,21.81-2.56,6.9-6.26,12.84-11.09,17.82-5.08,5.18-11.04,9.21-17.89,12.09-6.85,2.88-15.01,4.33-24.47,4.33-7.64,0-14.86-1.26-21.66-3.77-6.8-2.51-12.79-6.16-17.97-10.94-5.13-4.68-9.19-10.38-12.2-17.08-3.01-6.7-4.51-14.17-4.51-22.4s1.47-16.35,4.4-23.33c2.93-6.98,6.96-12.95,12.09-17.93,5.08-4.88,11.1-8.64,18.08-11.28,6.98-2.64,14.41-3.96,22.29-3.96s15.19,1.28,22.07,3.84c6.88,2.56,12.83,6.14,17.86,10.72Zm-19,75.1c2.22-4.49,3.82-9.58,4.81-15.26,.99-5.68,1.48-12.1,1.48-19.25,0-6.07-.43-11.98-1.29-17.74-.86-5.75-2.33-10.87-4.4-15.37-2.12-4.49-4.93-8.1-8.43-10.81-3.5-2.72-7.86-4.07-13.09-4.07-8.92,0-15.7,4.23-20.33,12.7-4.63,8.47-6.95,20.43-6.95,35.88,0,6.57,.51,12.76,1.52,18.59,1.01,5.83,2.6,10.91,4.77,15.26,2.22,4.39,5.03,7.81,8.43,10.26,3.4,2.44,7.59,3.67,12.57,3.67s9.07-1.23,12.57-3.7c3.5-2.47,6.28-5.85,8.36-10.14Z"/><path class="cls-2" d="M653.57,124.73c-1.53,.15-2.88,.32-4.07,.52s-2.66,.59-4.44,1.18c-2.02,.64-3.35,1.7-3.99,3.18-.64,1.48-.96,3.03-.96,4.66v12.2c0,2.46,.02,4.45,.07,5.95,.05,1.5,.12,3.36,.22,5.58-4.93,2.96-12.21,5.74-21.85,8.36-9.64,2.61-18.5,3.92-26.58,3.92-7.59,0-14.71-1.16-21.37-3.48-6.65-2.32-12.5-5.8-17.52-10.43-5.03-4.59-8.98-10.28-11.87-17.09-2.88-6.81-4.33-14.6-4.33-23.38,0-8.19,1.36-15.76,4.07-22.72,2.71-6.95,6.63-12.95,11.76-17.98,5.03-4.98,11.15-8.83,18.37-11.54,7.22-2.71,15.22-4.07,23.99-4.07,5.96,0,11.49,.74,16.56,2.22,5.08,1.48,9.27,3.06,12.57,4.73l4.58-4.07h6.43l.67,38.3h-6.51c-3.75-11.51-8.23-20.06-13.46-25.64-5.23-5.58-11.83-8.37-19.82-8.37-9.46,0-16.77,4.14-21.92,12.43-5.15,8.29-7.73,19.71-7.73,34.26,0,15.44,2.53,27.53,7.58,36.26,5.05,8.73,12.21,13.1,21.48,13.1,4.34,0,8.2-.65,11.57-1.96,3.38-1.31,6-2.82,7.87-4.55v-21.3c0-1.77-.32-3.27-.96-4.47s-1.92-2.26-3.84-3.14c-1.48-.69-3.33-1.26-5.55-1.7s-4.07-.76-5.55-.96v-5.77h54.49v5.77Z"/><path class="cls-1" d="M393.18,257.27c0,5.92-1.22,11-3.66,15.27-2.44,4.26-5.8,7.73-10.09,10.39-4.44,2.76-9.5,4.76-15.19,5.99s-12.09,1.85-19.19,1.85h-8.58v29.5c0,1.77,.33,3.32,1,4.62s1.93,2.35,3.81,3.14c.99,.39,2.59,.81,4.81,1.26s4.09,.74,5.62,.89v5.77h-56.86v-5.77c1.43-.15,3.33-.36,5.69-.63s4.02-.6,4.95-1c1.92-.79,3.19-1.75,3.81-2.88,.62-1.13,.92-2.71,.92-4.73v-74.02c0-1.73-.3-3.22-.89-4.47-.59-1.26-1.87-2.3-3.84-3.14-1.38-.59-3.22-1.12-5.51-1.59-2.29-.47-4.01-.78-5.14-.92v-5.77h57.9c13.56,0,23.69,2.16,30.39,6.47,6.7,4.31,10.06,10.91,10.06,19.78Zm-28.84,3.77c0-7.89-1.59-13.74-4.77-17.56-3.18-3.82-8.84-5.73-16.97-5.73h-6.14v46.07h3.11c8.08,0,14.23-1.86,18.45-5.58s6.32-9.45,6.32-17.19Z"/><path class="cls-2" d="M514.89,335.94h-57.16v-5.77c2.65-.2,5.78-.68,9.37-1.44,3.59-.76,5.39-1.71,5.39-2.85,0-.39-.04-.84-.11-1.33s-.28-1.16-.63-2l-8.91-21.74h-36.26c-.83,2.02-1.75,4.39-2.76,7.1s-1.88,5.13-2.61,7.25c-.93,2.76-1.48,4.76-1.66,5.99-.17,1.23-.26,2.09-.26,2.59,0,1.58,1.19,2.92,3.58,4.03,2.39,1.11,6.37,1.91,11.93,2.4v5.77h-43.03v-5.77c1.63-.1,3.46-.36,5.51-.78s3.66-1,4.84-1.74c2.02-1.18,3.73-2.64,5.14-4.36,1.4-1.73,2.58-3.77,3.51-6.14,5.18-12.57,11.05-26.8,17.63-42.7,6.58-15.9,12.56-30.33,17.93-43.29-4.19-1.08-7.49-3.04-9.91-5.88-2.42-2.83-3.62-6.3-3.62-10.39,0-5.03,2.02-9.13,6.06-12.31,4.04-3.18,9.02-4.77,14.94-4.77s11.08,1.55,15.05,4.66c3.97,3.11,5.95,7.25,5.95,12.42,0,3.84-1.13,7.18-3.4,10.02-2.27,2.83-5.32,4.84-9.17,6.03,8.13,20.01,15.42,38.03,21.85,54.05,6.43,16.02,11.23,27.75,14.38,35.2,.64,1.48,1.45,2.82,2.44,4.03,.99,1.21,2.39,2.35,4.21,3.44,1.38,.79,2.98,1.38,4.81,1.77,1.82,.39,3.48,.64,4.95,.74v5.77Zm-55.1-42.44l-15.22-37.89-14.96,37.89h30.18Zm3.79-78.45c0-3.5-.83-6.38-2.48-8.65-1.65-2.27-4.08-3.4-7.28-3.4s-5.51,1.08-7.21,3.25c-1.7,2.17-2.55,5.1-2.55,8.8s.84,6.47,2.51,8.76c1.67,2.29,4.09,3.44,7.25,3.44s5.57-1.12,7.25-3.36c1.67-2.24,2.51-5.19,2.51-8.84Z"/><path class="cls-1" d="M490.37,335.94h-33.08v-5.77c2.65-.2,5.78-.68,9.37-1.44,3.59-.76,5.39-1.71,5.39-2.85,0-.39-.04-.84-.11-1.33s-.28-1.16-.63-2l-8.91-21.74h-36.26c-.83,2.02-1.75,4.39-2.76,7.1s-1.88,5.13-2.61,7.25c-.93,2.76-1.48,4.76-1.66,5.99-.17,1.23-.26,2.09-.26,2.59,0,1.58,1.19,2.92,3.58,4.03,2.39,1.11,6.37,1.91,11.93,2.4v5.77h-43.03v-5.77c1.63-.1,3.46-.36,5.51-.78s3.66-1,4.84-1.74c2.02-1.18,3.73-2.64,5.14-4.36s2.58-3.77,3.51-6.14c5.18-12.57,16.83-38.08,23.41-53.97m5.23,5.44l-9.82,24.87h30.18"/><path class="cls-1" d="M450.35,427.02h-5.77c-1.53-4.48-3.97-9.29-7.34-14.42-3.37-5.13-6.48-7.89-9.33-8.28-1.57-.2-3.52-.37-5.83-.52-2.31-.15-4.3-.22-5.98-.22h-3.47v82.3c0,1.77,.32,3.34,.96,4.7,.64,1.36,1.9,2.43,3.77,3.22,1.13,.44,2.9,.9,5.29,1.37,2.39,.47,4.42,.8,6.1,1v5.77h-58.49v-5.77c1.43-.15,3.44-.36,6.03-.63,2.59-.27,4.35-.6,5.29-1,1.92-.79,3.2-1.85,3.84-3.18,.64-1.33,.96-2.91,.96-4.73v-83.04h-3.47c-1.67,0-3.67,.07-5.98,.22-2.31,.15-4.25,.32-5.83,.52-2.85,.4-5.96,3.15-9.33,8.28-3.37,5.13-5.82,9.93-7.34,14.42h-5.77v-30.02h101.67v30.02Z"/><path class="cls-1" d="M569.77,402.92c-1.63,.15-3.18,.44-4.66,.89s-3.01,1.14-4.58,2.07c-2.12,1.23-3.76,2.55-4.92,3.96-1.16,1.4-2.3,3.34-3.44,5.8-1.53,3.4-3.67,8.37-6.43,14.9-2.76,6.53-5.92,13.96-9.46,22.29-3.15,7.49-6.57,15.7-10.24,24.62-3.67,8.92-7.18,17.48-10.54,25.66h-14.86c-6.9-16.91-13.93-34.09-21.07-51.54-7.15-17.45-12.18-29.58-15.08-36.38-1.13-2.46-2.23-4.33-3.29-5.58-1.06-1.26-2.75-2.55-5.06-3.88-1.68-.93-3.15-1.59-4.44-1.96s-2.98-.7-5.1-1v-5.77h56.86v5.62c-5.32,.64-8.93,1.32-10.83,2.03-1.9,.71-2.84,1.62-2.84,2.7,0,.54,.09,1.12,.26,1.74,.17,.62,.43,1.44,.78,2.48,1.58,4.33,4.43,11.41,8.57,21.24,4.14,9.82,10.27,24.81,18.41,44.95,4.98-12.26,9.11-22.63,12.42-31.09,3.3-8.47,6.21-15.95,8.72-22.45,1.23-3.15,2.26-6.09,3.07-8.83s1.22-4.79,1.22-6.17c0-1.58-1.13-2.89-3.4-3.96-2.27-1.06-6.46-1.84-12.57-2.33v-5.92h42.52v5.92Z"/><path class="cls-2" d="M717.65,423.77h-5.62c-1.43-3.98-3.89-8-7.38-12.08-3.49-4.07-6.96-6.48-10.41-7.22-1.47-.29-3.53-.49-6.16-.59s-4.81-.15-6.53-.15h-13.73v40.45h9.29c2.7,0,5.16-.32,7.37-.96,2.21-.64,4.23-1.87,6.05-3.7,1.13-1.13,2.27-3.13,3.43-5.99,1.15-2.86,1.9-5.35,2.25-7.47h5.62v43.77h-5.62c-.3-2.07-1.05-4.67-2.25-7.8-1.21-3.13-2.35-5.29-3.43-6.47-1.62-1.77-3.54-2.99-5.75-3.66s-4.77-1-7.67-1h-9.29v30.24c0,6.41,.96,10.35,2.88,11.83,1.92,1.48,6.42,2.22,13.51,2.22s11.96-.32,15.06-.96c3.1-.64,5.29-1.58,6.57-2.81,2.36-2.41,5.02-6.1,7.98-11.05,2.95-4.95,4.9-8.66,5.83-11.13h5.4l-2,32.68h-96.86v-5.77c1.38-.1,3.25-.3,5.62-.59s4.04-.64,5.03-1.04c1.67-.69,2.88-1.63,3.62-2.81s1.11-2.78,1.11-4.81v-28.69h-36.64c-3.85,6.7-6.81,11.93-8.88,15.68-2.07,3.75-3.43,6.19-4.07,7.32-1.82,3.4-2.86,5.68-3.11,6.84-.25,1.16-.37,1.89-.37,2.18,0,1.04,.53,1.92,1.59,2.66,1.06,.74,2.3,1.31,3.73,1.7,1.58,.44,3.15,.79,4.72,1.04,1.58,.25,3,.42,4.28,.52v5.77h-43.03v-5.77c1.23-.1,2.93-.38,5.1-.85,2.17-.47,3.8-1.02,4.88-1.66,2.22-1.18,4.15-2.65,5.8-4.4,1.65-1.75,3.14-3.78,4.47-6.1,7.2-12.22,14.6-24.82,22.22-37.78,7.62-12.96,15.54-26.54,23.77-40.74-1.43-.44-3.54-.82-6.32-1.15-2.79-.32-5.21-.55-7.28-.7v-5.77h105.22v26.77Zm-76.09,27.28v-47.32h-5.67l-26.94,47.32h32.61Z"/><path class="cls-2" d="M854.29,501.92h-40.26c-6.95-10.65-12.72-19.12-17.33-25.44-4.6-6.31-10.33-13.61-17.18-21.89h-4.05v31.87c0,1.77,.33,3.28,1,4.51,.67,1.23,1.93,2.27,3.81,3.11,.93,.4,2.4,.8,4.4,1.22,2,.42,3.71,.7,5.14,.85v5.77h-55.97v-5.77c1.43-.15,3.32-.36,5.66-.63,2.34-.27,4-.6,4.99-1,1.87-.79,3.13-1.78,3.77-2.99,.64-1.21,.96-2.75,.96-4.62v-74.02c0-1.77-.27-3.25-.81-4.44-.54-1.18-1.85-2.22-3.92-3.11-1.58-.64-3.44-1.18-5.58-1.63s-3.83-.76-5.06-.96v-5.77h58.86c13.16,0,23.15,2.06,29.98,6.17,6.83,4.12,10.24,10.34,10.24,18.67,0,7.35-2.11,13.25-6.32,17.71-4.21,4.46-10.64,7.95-19.26,10.46,3.35,4.34,7.26,9.37,11.72,15.08,4.46,5.72,9.11,11.56,13.94,17.52,1.53,1.92,3.61,4.28,6.25,7.06,2.64,2.79,4.96,4.5,6.99,5.14,1.13,.35,2.58,.64,4.33,.89,1.75,.25,2.99,.4,3.73,.44v5.77Zm-50.35-78.01c0-7-1.96-12.11-5.88-15.34-3.92-3.23-9.5-4.84-16.75-4.84h-5.84v43.92h5.62c7.25,0,12.87-1.9,16.86-5.69,3.99-3.8,5.99-9.81,5.99-18.04Z"/><path class="cls-1" d="M597.69,470.16c-3.85,6.7,0,0-2.07,3.74-2.07,3.75-3.43,6.19-4.07,7.32-1.82,3.4-2.86,5.68-3.11,6.84-.25,1.16-.37,1.89-.37,2.18,0,1.04,.53,1.92,1.59,2.66,1.06,.74,2.3,1.31,3.73,1.7,1.58,.44,3.15,.79,4.72,1.04,1.58,.25,3,.42,4.28,.52v5.77h-43.03v-5.77c1.23-.1,2.93-.38,5.1-.85,2.17-.47,3.8-1.02,4.88-1.66,2.22-1.18,4.15-2.65,5.8-4.4,1.65-1.75,3.14-3.78,4.47-6.1,7.2-12.22,5.03-8.53,12.65-21.5"/><line class="cls-3" x1="230.89" y1="1.23" x2="676.64" y2="574.02"/></g></g></svg>